# xmcd CD database file
#
# Track frame offsets:
#	150
#	28592
#	67469
#	102258
#	122276
#	150901
#
# Disc length: 2406 seconds
#
# Revision: 0
# Processed by: cddbd v1.5.2PL0 Copyright (c) Steve Scherf et al.
# Submitted via: CDex 1.70beta2
#
DISCID=44096406
DTITLE=John McLaughlin - To the One
DYEAR=2009
DGENRE=Jazz
TTITLE0=Discovery
TTITLE1=Special Beings
TTITLE2=The Fine Line
TTITLE3=Lost and Found
TTITLE4=Recovery
TTITLE5=To the One
EXTD=YEAR: 2009
EXTT0=
EXTT1=
EXTT2=
EXTT3=
EXTT4=
EXTT5=
PLAYORDER=
